HIERARCHY
ROOT Hips
{
	OFFSET 0.000000 103.266502 0.000000
	CHANNELS 6 Xposition Yposition Zposition Xrotation Yrotation Zrotation 
	JOINT Spine
	{
		OFFSET -0.002400 12.777504 0.315300
		CHANNELS 3 Xrotation Yrotation Zrotation
		JOINT Spine1
		{
			OFFSET -0.002067 5.816869 0.032633
			CHANNELS 3 Xrotation Yrotation Zrotation
			JOINT Spine1_split
			{
				OFFSET -0.002067 5.816869 0.032633
				CHANNELS 3 Xrotation Yrotation Zrotation
				JOINT Spine2
				{
					OFFSET -0.002067 5.816869 0.032633
					CHANNELS 3 Xrotation Yrotation Zrotation
					JOINT Neck
					{
						OFFSET -0.003700 21.199493 -0.826900
						CHANNELS 3 Xrotation Yrotation Zrotation
						JOINT Head
						{
							OFFSET 0.000000 20.442200 4.834800
							CHANNELS 3 Xrotation Yrotation Zrotation
							JOINT HeadTop_End
							{
								OFFSET 0.000000 34.668396 4.968400
								CHANNELS 3 Xrotation Yrotation Zrotation
								End Site
								{
									OFFSET 0.000000 0.000000 0.000000
								}
							}
						}
					}
					JOINT LeftShoulder
					{
						OFFSET 3.288150 8.794197 -1.372250
						CHANNELS 3 Xrotation Yrotation Zrotation
						JOINT LeftShoulder_split
						{
							OFFSET 3.288150 8.794197 -1.372250
							CHANNELS 3 Xrotation Yrotation Zrotation
							JOINT LeftArm
							{
								OFFSET 11.953299 -2.279007 -0.146200
								CHANNELS 3 Xrotation Yrotation Zrotation
								JOINT LeftForeArm
								{
									OFFSET 18.448900 0.000000 0.000000
									CHANNELS 3 Xrotation Yrotation Zrotation
									JOINT LeftHand
									{
										OFFSET 29.527798 0.000000 0.000000
										CHANNELS 3 Xrotation Yrotation Zrotation
										JOINT LeftHandThumb1
										{
											OFFSET 10.739754 -2.369614 9.225399
											CHANNELS 3 Xrotation Yrotation Zrotation
											JOINT LeftHandThumb2
											{
												OFFSET 4.926170 -2.844131 2.844125
												CHANNELS 3 Xrotation Yrotation Zrotation
												JOINT LeftHandThumb3
												{
													OFFSET 4.614891 -2.664413 2.664409
													CHANNELS 3 Xrotation Yrotation Zrotation
													JOINT LeftHandThumb4
													{
														OFFSET 4.432465 -2.559082 2.559083
														CHANNELS 3 Xrotation Yrotation Zrotation
														End Site
														{
															OFFSET 0.000000 0.000000 0.000000
														}
													}
												}
											}
										}
										JOINT LeftHandIndex1
										{
											OFFSET 26.467674 0.187653 6.405298
											CHANNELS 3 Xrotation Yrotation Zrotation
											JOINT LeftHandIndex2
											{
												OFFSET 8.792900 0.000000 0.000000
												CHANNELS 3 Xrotation Yrotation Zrotation
												JOINT LeftHandIndex3
												{
													OFFSET 10.075203 0.000000 0.000000
													CHANNELS 3 Xrotation Yrotation Zrotation
													End Site
													{
														OFFSET 0.000000 0.000000 0.000000
													}
												}
											}
										}
										JOINT LeftHandMiddle1
										{
											OFFSET 25.764404 0.000000 0.000000
											CHANNELS 3 Xrotation Yrotation Zrotation
											JOINT LeftHandMiddle2
											{
												OFFSET 9.393974 0.000000 0.000000
												CHANNELS 3 Xrotation Yrotation Zrotation
												JOINT LeftHandMiddle3
												{
													OFFSET 10.771950 0.000000 0.000000
													CHANNELS 3 Xrotation Yrotation Zrotation
													End Site
													{
														OFFSET 0.000000 0.000000 0.000000
													}
												}
											}
										}
										JOINT LeftHandRing1
										{
											OFFSET 24.660927 0.144547 -6.225808
											CHANNELS 3 Xrotation Yrotation Zrotation
											JOINT LeftHandRing2
											{
												OFFSET 9.393799 0.000000 0.000000
												CHANNELS 3 Xrotation Yrotation Zrotation
												JOINT LeftHandRing3
												{
													OFFSET 9.928497 0.000000 0.000000
													CHANNELS 3 Xrotation Yrotation Zrotation
													End Site
													{
														OFFSET 0.000000 0.000000 0.000000
													}
												}
											}
										}
										JOINT LeftHandPinky1
										{
											OFFSET 23.655350 0.125290 -12.815412
											CHANNELS 3 Xrotation Yrotation Zrotation
											JOINT LeftHandPinky2
											{
												OFFSET 8.425102 0.000000 0.000000
												CHANNELS 3 Xrotation Yrotation Zrotation
												JOINT LeftHandPinky3
												{
													OFFSET 8.147003 0.000000 0.000000
													CHANNELS 3 Xrotation Yrotation Zrotation
													End Site
													{
														OFFSET 0.000000 0.000000 0.000000
													}
												}
											}
										}
									}
								}
							}
						}
					}
					JOINT RightShoulder
					{
						OFFSET -3.249400 8.794197 -1.372250
						CHANNELS 3 Xrotation Yrotation Zrotation
						JOINT RightShoulder_split
						{
							OFFSET -3.249400 8.794197 -1.372250
							CHANNELS 3 Xrotation Yrotation Zrotation
							JOINT RightArm
							{
								OFFSET -11.953299 -2.279007 -0.146200
								CHANNELS 3 Xrotation Yrotation Zrotation
								JOINT RightForeArm
								{
									OFFSET -18.448900 0.000000 0.000000
									CHANNELS 3 Xrotation Yrotation Zrotation
									JOINT RightHand
									{
										OFFSET -29.527802 0.000000 0.000000
										CHANNELS 3 Xrotation Yrotation Zrotation
										JOINT RightHandThumb1
										{
											OFFSET -10.739754 -2.369614 9.225399
											CHANNELS 3 Xrotation Yrotation Zrotation
											JOINT RightHandThumb2
											{
												OFFSET -4.926170 -2.844131 2.844125
												CHANNELS 3 Xrotation Yrotation Zrotation
												JOINT RightHandThumb3
												{
													OFFSET -4.614891 -2.664413 2.664409
													CHANNELS 3 Xrotation Yrotation Zrotation
													JOINT RightHandThumb4
													{
														OFFSET -4.432465 -2.559082 2.559083
														CHANNELS 3 Xrotation Yrotation Zrotation
														End Site
														{
															OFFSET 0.000000 0.000000 0.000000
														}
													}
												}
											}
										}
										JOINT RightHandIndex1
										{
											OFFSET -26.467674 0.187653 6.405298
											CHANNELS 3 Xrotation Yrotation Zrotation
											JOINT RightHandIndex2
											{
												OFFSET -8.792900 0.000000 0.000000
												CHANNELS 3 Xrotation Yrotation Zrotation
												JOINT RightHandIndex3
												{
													OFFSET -10.075203 0.000000 0.000000
													CHANNELS 3 Xrotation Yrotation Zrotation
													End Site
													{
														OFFSET 0.000000 0.000000 0.000000
													}
												}
											}
										}
										JOINT RightHandMiddle1
										{
											OFFSET -25.764404 0.000000 0.000000
											CHANNELS 3 Xrotation Yrotation Zrotation
											JOINT RightHandMiddle2
											{
												OFFSET -9.393974 0.000000 0.000000
												CHANNELS 3 Xrotation Yrotation Zrotation
												JOINT RightHandMiddle3
												{
													OFFSET -10.771950 0.000000 0.000000
													CHANNELS 3 Xrotation Yrotation Zrotation
													End Site
													{
														OFFSET 0.000000 0.000000 0.000000
													}
												}
											}
										}
										JOINT RightHandRing1
										{
											OFFSET -24.660927 0.144547 -6.225808
											CHANNELS 3 Xrotation Yrotation Zrotation
											JOINT RightHandRing2
											{
												OFFSET -9.393799 0.000000 0.000000
												CHANNELS 3 Xrotation Yrotation Zrotation
												JOINT RightHandRing3
												{
													OFFSET -9.928497 0.000000 0.000000
													CHANNELS 3 Xrotation Yrotation Zrotation
													End Site
													{
														OFFSET 0.000000 0.000000 0.000000
													}
												}
											}
										}
										JOINT RightHandPinky1
										{
											OFFSET -23.655350 0.125290 -12.815412
											CHANNELS 3 Xrotation Yrotation Zrotation
											JOINT RightHandPinky2
											{
												OFFSET -8.425102 0.000000 0.000000
												CHANNELS 3 Xrotation Yrotation Zrotation
												JOINT RightHandPinky3
												{
													OFFSET -8.147003 0.000000 0.000000
													CHANNELS 3 Xrotation Yrotation Zrotation
													End Site
													{
														OFFSET 0.000000 0.000000 0.000000
													}
												}
											}
										}
									}
								}
							}
						}
					}
				}
			}
		}
	}
	JOINT LeftUpLeg
	{
		OFFSET 11.394100 -6.187798 -0.413800
		CHANNELS 3 Xrotation Yrotation Zrotation
		JOINT LeftLeg
		{
			OFFSET 0.430247 -32.302673 3.732800
			CHANNELS 3 Xrotation Yrotation Zrotation
			JOINT LeftFoot
			{
				OFFSET -0.430247 -48.264931 -6.423300
				CHANNELS 3 Xrotation Yrotation Zrotation
				JOINT LeftToeBase
				{
					OFFSET 4.230900 -16.068199 23.438400
					CHANNELS 3 Xrotation Yrotation Zrotation
					JOINT LeftToe_End
					{
						OFFSET 4.510700 0.695400 19.974600
						CHANNELS 3 Xrotation Yrotation Zrotation
						End Site
						{
							OFFSET 0.000000 0.000000 0.000000
						}
					}
				}
			}
		}
	}
	JOINT RightUpLeg
	{
		OFFSET -11.333700 -6.187798 -0.413800
		CHANNELS 3 Xrotation Yrotation Zrotation
		JOINT RightLeg
		{
			OFFSET -0.430392 -32.302628 3.733000
			CHANNELS 3 Xrotation Yrotation Zrotation
			JOINT RightFoot
			{
				OFFSET 0.430392 -48.264973 -6.423500
				CHANNELS 3 Xrotation Yrotation Zrotation
				JOINT RightToeBase
				{
					OFFSET -4.230900 -16.068199 23.438400
					CHANNELS 3 Xrotation Yrotation Zrotation
					JOINT RightToe_End
					{
						OFFSET -4.510700 0.695400 19.974600
						CHANNELS 3 Xrotation Yrotation Zrotation
						End Site
						{
							OFFSET 0.000000 0.000000 0.000000
						}
					}
				}
			}
		}
	}
}
MOTION
Frames: 4
Frame Time: 0.016667
111.829742 78.655121 214.918640 -100.714712 -66.128409 -182.983309 11.548875 1.686981 2.196403 4.854285 11.245306 9.491957 0.000000 0.000000 0.000000 -0.264528 4.650233 6.859575 17.054967 5.940613 9.977813 17.218058 33.848123 -18.256850 0.000003 -0.000002 -0.000000 0.094780 -6.199208 -0.123044 0.000000 0.000000 0.000000 9.665281 -8.508373 -0.913032 0.000009 -16.045861 0.000012 35.770455 4.134781 2.795908 -21.849350 -26.533927 3.214730 14.707535 16.467043 -15.962729 -7.335822 -0.421715 13.147348 -0.000001 -0.000001 -0.000004 -1.323892 -11.050861 -6.554809 0.019605 0.479413 -4.683553 0.000002 0.000000 0.000001 -0.648682 1.485331 -20.430368 0.000900 0.102832 -1.003590 -0.000002 0.000000 -0.000001 5.314362 12.518970 -31.340811 0.022002 0.507675 -4.960396 0.000000 0.000001 0.000000 2.322004 20.828237 -37.538105 0.232406 1.635312 -16.176171 0.000004 0.000002 0.000000 0.702717 0.170126 17.086862 0.000000 0.000000 0.000000 -42.474330 9.627239 15.642597 -0.000010 21.324544 0.000003 54.171036 3.808806 -28.436347 -17.608784 2.987709 1.533009 -5.026854 -26.669268 -12.857315 -13.642570 -18.946482 -16.527789 -0.000002 -0.000002 -0.000001 0.237648 -2.716277 11.266506 0.242376 -1.484321 18.547363 0.000001 0.000000 -0.000002 2.290417 -8.097834 24.945372 0.422933 -1.940982 24.583198 -0.000000 -0.000001 -0.000000 5.299374 -10.955992 36.062846 0.774638 -2.573975 33.493755 -0.000001 0.000001 0.000000 6.881483 -15.240333 43.779091 0.835668 -2.663795 34.829061 -0.000002 -0.000001 0.000001 -74.771010 4.187017 38.901500 94.325336 -3.579335 -9.890935 26.585224 -11.400393 -9.440297 0.669938 -0.000003 -0.000009 -0.000000 -0.000000 0.000000 -64.577704 21.789924 -47.842074 60.626460 1.891421 -2.857366 10.192334 3.067408 19.179409 8.592773 -0.000023 0.000009 -0.000000 0.000001 -0.000001 
114.907791 74.911636 219.036041 -100.018176 -65.420897 -183.728933 11.646889 1.522904 1.739037 5.544261 11.383300 9.197806 0.000000 0.000000 0.000000 -0.042809 4.627757 6.563423 15.374956 5.803026 9.269345 18.722375 32.861427 -18.303611 -0.000001 0.000003 0.000000 0.193429 -6.244326 -0.490217 0.000000 0.000000 0.000000 8.939516 -6.671617 0.394181 -0.000009 -17.704887 0.000006 40.311790 8.263380 4.360182 -22.662691 -26.776619 3.864292 11.870361 19.263017 -11.470799 -8.295397 -0.172131 12.732440 -0.000001 0.000003 -0.000001 0.129998 -11.645906 -0.445214 0.021087 0.497166 -4.857441 -0.000001 0.000001 0.000001 -0.475361 0.547745 -12.557673 0.000931 0.104594 -1.020729 0.000001 0.000000 0.000003 3.960313 12.243260 -23.933507 0.023684 0.526786 -5.147694 0.000000 -0.000001 0.000001 1.720372 20.343995 -29.864907 0.251803 1.700706 -16.842471 0.000002 0.000001 0.000000 0.757837 0.219491 18.065760 0.000000 0.000000 0.000000 -42.841071 9.112745 16.864207 0.000002 24.910774 0.000004 54.071374 4.622348 -27.029934 -17.424499 3.155057 1.313334 -4.888509 -26.946234 -12.345334 -13.541676 -19.793869 -16.673199 -0.000001 -0.000001 -0.000000 0.256214 -2.735457 12.032143 0.266322 -1.553845 19.450490 -0.000000 0.000000 -0.000002 2.288278 -8.009714 25.439333 0.480179 -2.061436 26.221885 -0.000003 -0.000000 -0.000002 5.282039 -10.807339 36.655638 0.848274 -2.681831 35.099581 0.000000 -0.000001 -0.000001 6.682611 -15.123057 43.637857 0.926459 -2.789625 36.737702 -0.000000 0.000000 0.000000 -75.383801 4.075025 37.674770 95.022063 -3.518037 -9.630483 26.413851 -11.200121 -8.799865 0.269133 -0.000019 0.000023 -0.000000 0.000000 -0.000000 -64.748349 20.665067 -47.737189 57.307726 1.459852 -3.370635 13.296045 3.794464 21.033863 7.909328 -0.000011 0.000001 0.000000 -0.000003 -0.000001 
117.936089 70.722839 223.370819 -98.969257 -65.887604 -184.309240 11.750885 1.275516 1.696917 5.957492 11.339461 9.012862 0.000000 0.000000 0.000000 0.073768 4.191051 6.295739 13.799712 5.635504 8.568020 19.962054 31.780696 -18.252618 -0.000002 -0.000002 -0.000000 0.268087 -6.237663 -0.973501 0.000000 0.000000 0.000000 7.893504 -4.110867 1.992695 -0.000009 -21.678785 -0.000002 45.854195 11.612316 6.910712 -24.357776 -27.217474 5.367372 4.744751 23.727329 -0.421146 -10.448894 0.439144 11.817497 0.000001 -0.000001 -0.000001 2.172452 -12.057190 7.954030 0.022638 0.515079 -5.032877 -0.000001 0.000000 0.000003 0.020041 -0.647341 -0.983339 0.000968 0.106391 -1.038273 0.000002 0.000002 -0.000002 1.956665 11.211970 -12.644218 0.025454 0.546079 -5.336634 0.000000 -0.000001 -0.000002 0.969396 19.372261 -18.258795 0.272114 1.766403 -17.513908 -0.000002 -0.000002 -0.000001 0.787622 0.240699 18.556507 0.000000 0.000000 0.000000 -42.487916 7.719426 18.634641 -0.000009 29.131276 -0.000001 53.659605 5.152979 -25.209960 -17.240921 3.321309 1.091999 -4.748492 -27.220682 -11.832495 -13.444486 -20.639761 -16.817379 0.000001 -0.000001 0.000000 0.274436 -2.754147 12.796019 0.291309 -1.622819 20.351553 0.000001 0.000001 -0.000002 2.284445 -7.922229 25.932008 0.540682 -2.179900 27.857051 0.000000 0.000001 0.000004 5.261769 -10.660293 37.246811 0.924726 -2.787323 36.701974 -0.000002 -0.000000 -0.000000 6.484870 -15.005212 43.497588 1.021196 -2.912108 38.642318 0.000000 -0.000000 0.000000 -75.887814 3.780921 34.950003 95.808081 -3.288436 -8.885017 25.970541 -9.847083 -8.191267 0.402804 0.000005 -0.000024 -0.000000 -0.000001 -0.000000 -64.175310 18.745651 -48.711338 53.619714 1.084789 -3.957080 15.939592 4.807877 22.699184 7.955828 -0.000010 0.000004 -0.000000 -0.000001 -0.000001 
121.179085 65.992889 227.861572 -98.872118 -65.659913 -186.506607 11.870368 1.016956 1.985231 6.189665 11.236922 8.879470 0.000000 0.000000 0.000000 0.150943 3.491581 6.062965 12.506459 5.434262 7.875168 20.393688 30.654907 -18.008847 -0.000002 0.000002 0.000001 0.299028 -6.173945 -1.669669 0.000000 0.000000 0.000000 6.360269 2.416608 3.605623 0.000005 -28.398076 0.000003 50.134507 13.536606 11.094394 -26.147689 -27.717049 6.953350 -3.260738 25.444463 12.144131 -12.718413 1.160019 10.880827 -0.000001 0.000002 0.000001 4.001848 -11.998672 15.702199 0.024255 0.533131 -5.209783 0.000000 0.000001 0.000001 0.680424 -1.545808 10.206249 0.000995 0.108235 -1.056271 -0.000000 -0.000002 -0.000001 0.308136 9.635006 -1.589524 0.027293 0.565508 -5.527086 -0.000002 0.000001 -0.000002 0.405220 18.245688 -6.886047 0.293338 1.832267 -18.189916 0.000002 -0.000003 -0.000003 1.035436 0.349701 19.024066 0.000000 0.000000 0.000000 -41.972943 5.617776 20.313724 0.000004 34.549563 -0.000009 53.342196 5.393194 -23.168608 -17.059699 3.485431 0.870130 -4.607794 -27.490757 -11.322439 -13.352648 -21.478404 -16.959394 -0.000000 -0.000001 -0.000000 0.292215 -2.772311 13.552786 0.317105 -1.690733 21.244344 0.000001 0.000001 -0.000001 2.278997 -7.836080 26.419959 0.603948 -2.295547 29.477307 -0.000001 0.000001 0.000001 5.238750 -10.515964 37.832220 1.003368 -2.889695 38.289805 -0.000002 -0.000000 -0.000000 6.289591 -14.887709 43.359205 1.119055 -3.030286 40.529704 -0.000002 0.000000 -0.000000 -77.003109 2.442499 32.565755 96.813191 -3.140324 -8.040000 26.776640 -9.415302 -7.676637 0.779526 -0.000007 -0.000008 0.000001 0.000000 -0.000000 -66.100754 18.218039 -47.693913 52.785468 1.567757 -5.676014 17.711763 5.639737 24.862177 5.824835 0.000006 0.000001 0.000000 0.000001 -0.000001 
